<svg width="133" height="75" viewBox="0 0 133 75" fill="none" xmlns="http://www.w3.org/2000/svg">
<path d="M55.4166 36.856C56.0606 36.856 56.5226 36.996 56.8025 37.276C57.1106 37.556 57.2646 37.92 57.2646 38.368C57.2646 39.096 57.0406 39.74 56.5926 40.3C56.1726 40.86 55.5006 41.154 54.5766 41.182C52.3646 41.21 50.3765 41.042 48.6125 40.678C46.6525 44.85 44.2865 48.322 41.5145 51.094C38.7705 53.838 36.0545 55.21 33.3665 55.21C30.9025 55.21 29.0545 53.908 27.8225 51.304C26.5905 48.672 25.8905 45.158 25.7225 40.762C24.0425 45.634 22.1385 49.26 20.0105 51.64C17.9105 54.02 15.6705 55.21 13.2905 55.21C10.6025 55.21 8.57255 53.544 7.20055 50.212C5.82855 46.852 5.14255 42.344 5.14255 36.688C5.14255 32.572 5.50655 28.05 6.23455 23.122C6.43055 21.722 6.78055 20.756 7.28455 20.224C7.81655 19.664 8.64255 19.384 9.76255 19.384C10.6025 19.384 11.2465 19.566 11.6945 19.93C12.1705 20.294 12.4085 20.966 12.4085 21.946C12.4085 22.142 12.3805 22.52 12.3245 23.08C11.4845 28.82 11.0645 33.706 11.0645 37.738C11.0645 41.49 11.3865 44.388 12.0305 46.432C12.6745 48.476 13.5425 49.498 14.6345 49.498C15.6145 49.498 16.7905 48.476 18.1625 46.432C19.5625 44.36 20.9485 41.308 22.3205 37.276C23.6925 33.216 24.8545 28.386 25.8065 22.786C26.0305 21.498 26.4365 20.616 27.0245 20.14C27.6405 19.636 28.4665 19.384 29.5025 19.384C30.3705 19.384 31.0005 19.58 31.3925 19.972C31.8125 20.336 32.0225 20.896 32.0225 21.652C32.0225 22.1 31.9945 22.45 31.9385 22.702C31.1545 27.266 30.7625 31.83 30.7625 36.394C30.7625 39.502 30.8605 41.98 31.0565 43.828C31.2805 45.676 31.6865 47.09 32.2745 48.07C32.8905 49.022 33.7725 49.498 34.9205 49.498C36.2645 49.498 37.7625 48.49 39.4145 46.474C41.0665 44.43 42.5785 41.896 43.9506 38.872C42.2425 37.808 40.9545 36.436 40.0865 34.756C39.2185 33.048 38.7845 31.088 38.7845 28.876C38.7845 26.664 39.1205 24.802 39.7925 23.29C40.4925 21.75 41.4305 20.602 42.6065 19.846C43.8105 19.09 45.1405 18.712 46.5965 18.712C48.3885 18.712 49.8025 19.356 50.8386 20.644C51.9026 21.932 52.4346 23.696 52.4346 25.936C52.4346 29.1 51.7486 32.614 50.3765 36.478C51.8045 36.73 53.4845 36.856 55.4166 36.856ZM43.0265 28.582C43.0265 31.326 43.9085 33.356 45.6726 34.672C46.7645 31.536 47.3105 28.946 47.3105 26.902C47.3105 25.726 47.1565 24.872 46.8486 24.34C46.5405 23.78 46.1205 23.5 45.5886 23.5C44.8325 23.5 44.2165 23.948 43.7406 24.844C43.2645 25.712 43.0265 26.958 43.0265 28.582ZM71.914 45.634C72.278 45.634 72.558 45.802 72.754 46.138C72.978 46.474 73.09 46.936 73.09 47.524C73.09 48.644 72.824 49.512 72.292 50.128C71.256 51.388 69.786 52.55 67.882 53.614C66.006 54.678 63.99 55.21 61.834 55.21C58.894 55.21 56.612 54.412 54.988 52.816C53.364 51.22 52.552 49.036 52.552 46.264C52.552 44.332 52.958 42.54 53.77 40.888C54.582 39.208 55.702 37.878 57.13 36.898C58.586 35.918 60.224 35.428 62.044 35.428C63.668 35.428 64.97 35.918 65.95 36.898C66.93 37.85 67.42 39.152 67.42 40.804C67.42 42.736 66.72 44.402 65.32 45.802C63.948 47.174 61.61 48.266 58.306 49.078C59.006 50.366 60.336 51.01 62.296 51.01C63.556 51.01 64.984 50.576 66.58 49.708C68.204 48.812 69.604 47.65 70.78 46.222C71.116 45.83 71.494 45.634 71.914 45.634ZM61.33 39.544C60.294 39.544 59.412 40.146 58.684 41.35C57.984 42.554 57.634 44.01 57.634 45.718V45.802C59.286 45.41 60.588 44.822 61.54 44.038C62.492 43.254 62.968 42.344 62.968 41.308C62.968 40.776 62.814 40.356 62.506 40.048C62.226 39.712 61.834 39.544 61.33 39.544ZM74.6312 55.21C72.8952 55.21 71.5092 54.58 70.4732 53.32C69.4372 52.06 68.9192 50.408 68.9192 48.364C68.9192 46.124 69.4372 44.01 70.4732 42.022C71.5092 40.006 72.8812 38.396 74.5892 37.192C76.3252 35.96 78.1592 35.344 80.0912 35.344C80.7072 35.344 81.1132 35.47 81.3092 35.722C81.5332 35.946 81.7152 36.366 81.8552 36.982C82.4432 36.87 83.0592 36.814 83.7032 36.814C85.0752 36.814 85.7612 37.304 85.7612 38.284C85.7612 38.872 85.5512 40.272 85.1312 42.484C84.4872 45.704 84.1652 47.944 84.1652 49.204C84.1652 49.624 84.2632 49.96 84.4592 50.212C84.6832 50.464 84.9632 50.59 85.2992 50.59C85.8312 50.59 86.4752 50.254 87.2312 49.582C87.9872 48.882 89.0092 47.762 90.2972 46.222C90.6332 45.83 91.0112 45.634 91.4312 45.634C91.7952 45.634 92.0752 45.802 92.2712 46.138C92.4952 46.474 92.6072 46.936 92.6072 47.524C92.6072 48.644 92.3412 49.512 91.8092 50.128C90.6612 51.556 89.4432 52.76 88.1552 53.74C86.8672 54.72 85.6212 55.21 84.4172 55.21C83.4932 55.21 82.6392 54.902 81.8552 54.286C81.0992 53.642 80.5252 52.774 80.1332 51.682C78.6772 54.034 76.8432 55.21 74.6312 55.21ZM76.1432 50.968C76.7592 50.968 77.3472 50.604 77.9072 49.876C78.4672 49.148 78.8732 48.182 79.1252 46.978L80.6792 39.25C79.5032 39.278 78.4112 39.726 77.4032 40.594C76.4232 41.434 75.6392 42.554 75.0512 43.954C74.4632 45.354 74.1692 46.838 74.1692 48.406C74.1692 49.274 74.3372 49.918 74.6732 50.338C75.0372 50.758 75.5272 50.968 76.1432 50.968ZM92.1757 55.21C91.1117 55.21 90.3557 54.65 89.9077 53.53C89.4877 52.41 89.2777 50.618 89.2777 48.154C89.2777 44.514 89.7957 41.056 90.8317 37.78C91.0837 36.968 91.4897 36.38 92.0497 36.016C92.6377 35.624 93.4497 35.428 94.4857 35.428C95.0457 35.428 95.4377 35.498 95.6617 35.638C95.8857 35.778 95.9977 36.044 95.9977 36.436C95.9977 36.884 95.7877 37.892 95.3677 39.46C95.0877 40.58 94.8637 41.56 94.6957 42.4C94.5277 43.212 94.3877 44.234 94.2757 45.466C95.0317 43.282 95.9277 41.434 96.9637 39.922C98.0277 38.41 99.1057 37.29 100.198 36.562C101.318 35.806 102.368 35.428 103.348 35.428C104.328 35.428 105.014 35.652 105.406 36.1C105.826 36.548 106.036 37.234 106.036 38.158C106.036 39.054 105.77 40.678 105.238 43.03C105.014 44.038 104.86 44.794 104.776 45.298C105.7 42.946 106.722 41.028 107.842 39.544C108.99 38.06 110.11 37.01 111.202 36.394C112.294 35.75 113.302 35.428 114.226 35.428C115.122 35.428 115.794 35.666 116.242 36.142C116.718 36.59 116.956 37.262 116.956 38.158C116.956 38.886 116.802 40.258 116.494 42.274C116.214 43.982 115.99 45.606 115.822 47.146C115.654 48.658 115.57 50.352 115.57 52.228C115.57 53.292 115.346 54.062 114.898 54.538C114.478 54.986 113.778 55.21 112.798 55.21C111.874 55.21 111.202 54.972 110.782 54.496C110.362 54.02 110.152 53.306 110.152 52.354C110.152 51.234 110.348 49.386 110.74 46.81C111.076 44.57 111.244 43.142 111.244 42.526C111.244 42.078 111.09 41.854 110.782 41.854C110.418 41.854 109.9 42.33 109.228 43.282C108.556 44.206 107.884 45.438 107.212 46.978C106.54 48.518 105.994 50.142 105.574 51.85C105.266 53.194 104.902 54.09 104.482 54.538C104.09 54.986 103.446 55.21 102.55 55.21C101.626 55.21 100.926 54.776 100.45 53.908C100.002 53.012 99.7777 51.934 99.7777 50.674C99.7777 49.61 99.9177 48.07 100.198 46.054C100.422 44.262 100.534 43.086 100.534 42.526C100.534 42.078 100.38 41.854 100.072 41.854C99.6517 41.854 99.1197 42.358 98.4757 43.366C97.8317 44.374 97.2017 45.662 96.5857 47.23C95.9977 48.798 95.5217 50.338 95.1577 51.85C94.8497 53.166 94.4857 54.062 94.0657 54.538C93.6737 54.986 93.0437 55.21 92.1757 55.21Z" fill="#111111"/>
<circle cx="128.5" cy="50.5" r="4.5" fill="#6637EC"/>
</svg>
